<?xml version="1.0" encoding="utf-8"?>
<!-- Generator: Adobe Illustrator 22.1.0, SVG Export Plug-In . SVG Version: 6.00 Build 0)  -->
<svg version="1.1" id="Calque_1" xmlns="http://www.w3.org/2000/svg" xmlns:xlink="http://www.w3.org/1999/xlink" x="0px" y="0px"
	 viewBox="0 0 453.2 135.1" style="enable-background:new 0 0 453.2 135.1;" xml:space="preserve">
<style type="text/css">
	.st0{fill:#A0C5E9;}
</style>
<g>
	<path class="st0" d="M411.3,64.8l35.4-42.1h-29l-27.9,36.6h-0.2V22.7h-47.9l-16.5,24l-16.5-24h-79.9v9.7
		c-4.4-5.3-10.9-8.5-18.9-9.7H166v89.7h23.5V82.4h13.3c20.5,0,32-9.3,32-30.6c0-3.6-0.4-6.9-1.2-9.8h14.6v70.4h23.5V42h22.6
		l19.2,27.1v43.3H337V69.1l29.2-41.2v84.5h23.5V73.2h0.2l30.3,39.1h30.4L411.3,64.8z M193.5,63.6h-4V41h4c9.1,0,16.9,0.1,16.9,11.5
		C210.3,63.6,202,63.6,193.5,63.6z"/>
	<path class="st0" d="M136.7,22.7v85.6l-25.3-32.9c12.8-2.3,19.8-13.1,19.8-25.5c0-16.4-9.8-25-23.8-27.2H3.5V42h19.4v70.4h23.5V42
		h18.4v70.4h23.5V77.7h0.2l22.1,34.7h49.6V22.7H136.7z M90.5,62.6h-2.3V40.1h2.3c7.7,0,16.3,1.4,16.3,11.3
		C106.8,61.2,98.2,62.6,90.5,62.6z"/>
</g>
</svg>
